<svg xmlns="http://www.w3.org/2000/svg" viewBox="0 0 83.07 70.96">
<defs>
<style>.cls-1{fill:none;stroke:#1d1d1b;stroke-miterlimit:10;stroke-width:2px;}.cls-2{fill:#1d1d1b;}</style>
</defs><g id="Layer_2" data-name="Layer 2"><g id="Layer_1-2" data-name="Layer 1">
<line class="cls-1" x1="27.18" y1="60.93" x2="27.18" y2="68.07"/>
<line class="cls-1" x1="55.42" y1="47.15" x2="60.6" y2="52.06"/>
<line class="cls-1" x1="73.9" y1="15.8" x2="80.48" y2="18.56"/>
<polygon class="cls-2" points="24.5 4.11 20.87 69.09 17.24 4.11 24.5 4.11"/>
<polygon class="cls-2" points="17.28 0 77.3 4.23 17.21 7.26 17.28 0"/>
<polygon class="cls-2" points="17.3 7.26 0 3.63 17.3 0 17.3 7.26"/>
<path class="cls-2" d="M82,4.22a72.59,72.59,0,0,1,1.12,12.86A64.3,64.3,0,0,1,81.62,30a51.73,51.73,0,0,1-1.78,6.33,50.86,50.86,0,0,1-2.64,6.07,44.22,44.22,0,0,1-7.79,10.7,58.22,58.22,0,0,1-10.14,8.39,57.3,57.3,0,0,1-11.75,5.86,65.72,65.72,0,0,1-12.68,3.09c-2.15.28-4.31.4-6.47.48-1.08,0-2.16,0-3.23,0l-3.22-.18v-.2a68.34,68.34,0,0,0,25-4.66A60.27,60.27,0,0,0,68,51.79a44.39,44.39,0,0,0,7.61-10.21,51.83,51.83,0,0,0,4.58-11.91A73.48,73.48,0,0,0,81.76,4.24Z"/>
<path class="cls-2" d="M66.15,33.29c-.23-.44-.78-1.49-1.67-3.14Q63.33,28,61.38,23.7q-1.14-2.5-1.8-4.4a2.18,2.18,0,0,1-.1-1.68.76.76,0,0,1,.51-.4.64.64,0,0,1,.54.05,3.45,3.45,0,0,1,1,1.15c.09.13.47.75,1.16,1.87,1.25,2,2.16,3.4,2.73,4.18a50.94,50.94,0,0,0,4.2,5.15,8.78,8.78,0,0,0,1.74,1.47,2.09,2.09,0,0,0,.3.14,5.54,5.54,0,0,1,.56.23,1,1,0,0,1,.49.6.75.75,0,0,1,0,.64A.69.69,0,0,1,72,33a1.82,1.82,0,0,1-.91-.27Q67.82,31,61.22,20.25A63.61,63.61,0,0,0,66.5,31.37a8.94,8.94,0,0,1,1,2.17,1.69,1.69,0,0,1-.08,1.16.78.78,0,0,1-.74.44A1.37,1.37,0,0,1,66,35q-2.9-1.59-7.22-8.42a23.05,23.05,0,0,0,1.53,3.76,63,63,0,0,0,4,6.75c.72,1,1.7,2.33,3,3.92.64.8.84,1.43.59,1.88a.41.41,0,0,1-.31.21.42.42,0,0,1-.31-.05,5.87,5.87,0,0,1-1-1.08c-1.1-1.4-1.89-2.44-2.34-3.11A62.68,62.68,0,0,1,58.09,28a33.21,33.21,0,0,1-1.23-3.23,1.74,1.74,0,0,1,0-1.24.74.74,0,0,1,.45-.34.89.89,0,0,1,.7,0,3.13,3.13,0,0,1,.88,1.11,40.21,40.21,0,0,0,3.69,5.35A24.42,24.42,0,0,0,66.15,33.29Z"/>
<path class="cls-2" d="M37.63,44.72a.55.55,0,0,1,.42-.18.67.67,0,0,1,.43.14,1.74,1.74,0,0,1,.44.83c.06.2.23.9.52,2.11q2,8.45,5.29,13.18c.39.47.47.84.24,1.12a.67.67,0,0,1-.53.22.83.83,0,0,1-.55-.2,8.12,8.12,0,0,1-1.39-2,45,45,0,0,1-3.93-10,39.13,39.13,0,0,1-1-4.07C37.47,45.26,37.49,44.88,37.63,44.72Z"/></g></g></svg>